# xmcd
#
# Track frame offsets: 
#        150
#        12767
#        27000
#        36105
#        51697
#        62577
#        78060
#        91092
#        106862
#        120622
#        133020
#        148350
#        161407
#        173707
#        185985
#        201555
#        216137
#        237387
#        251387
#        264590
#        279022
#        289947
#
# Disc length: 4054 seconds
#
# Revision: 3
# Processed by: cddbd v1.5.2PL0 Copyright (c) Steve Scherf et al.
# Submitted via: ExactAudioCopyFreeDBPlugin 1.0
#
DISCID=3d0fd416
DTITLE=Nat King Cole - Nat King Cole - The Ultimate Colection
DYEAR=2000
DGENRE=Oldies
TTITLE0=Ramblin' Rose
TTITLE1=When I Fall In Love
TTITLE2=Skip To My Lou
TTITLE3=Unforgettable
TTITLE4=Those Lazy-Hazy Crazy Days Of Summer
TTITLE5=Mona Lisa
TTITLE6=Smile
TTITLE7=Fly Me To The Moon
TTITLE8=(i Love You) For Sentimental Reasons
TTITLE9=Let There Be Love
TTITLE10=Too Young
TTITLE11=Nature Boy
TTITLE12=Love Letters
TTITLE13=Pretend
TTITLE14=The More I See You
TTITLE15=Stardust
TTITLE16=A Nightingale Sang In Berkeley Square
TTITLE17=It's All In The Game
TTITLE18=Answer Me
TTITLE19=Because You're Mine
TTITLE20=Let's Face The Music And Dance
TTITLE21=On The Street Where You Live
EXTD=YEAR: 2000
EXTT0=
EXTT1=
EXTT2=
EXTT3=
EXTT4=
EXTT5=
EXTT6=
EXTT7=
EXTT8=
EXTT9=
EXTT10=
EXTT11=
EXTT12=
EXTT13=
EXTT14=
EXTT15=
EXTT16=
EXTT17=
EXTT18=
EXTT19=
EXTT20=
EXTT21=
PLAYORDER=
